<svg width="1920" height="791" viewBox="0 0 1920 791" fill="none" xmlns="http://www.w3.org/2000/svg">
<g clip-path="url(#clip0_879_5695)">
<path d="M1625 205C1652.6 205 1675 227.4 1675 255C1675 282.6 1652.6 305 1625 305C1597.4 305 1575 282.6 1575 255C1575 227.4 1597.4 205 1625 205Z" fill="#7E47DD"/>
<path d="M992 602C1019.6 602 1042 624.4 1042 652C1042 679.6 1019.6 702 992 702C964.4 702 942 679.6 942 652C942 624.4 964.4 602 992 602Z" fill="#7E47DD"/>
<path d="M1242 624L1430 420L1898 791H1453L1242 624Z" fill="#7E47DD"/>
<path d="M1339 386C1415.8 386 1478 448.2 1478 525C1478 601.8 1415.8 664 1339 664C1262.2 664 1200 601.8 1200 525C1200 448.2 1262.2 386 1339 386Z" fill="#7E47DD"/>
<path d="M1026.5 -188C1171.5 -188 1289 -70.5 1289 74.5C1289 219.5 1171.5 337 1026.5 337C881.5 337 764 219.5 764 74.5C764 -70.5 881.5 -188 1026.5 -188Z" fill="#7E47DD"/>
<path d="M163.9 323.8L357 572.1C378 599.1 373.1 638 346.1 658.9L112 841C85 862 46.2 857.1 25.2 830.1L-168 581.9C-189 554.9 -184.1 516 -157.1 495.1L77 313C104 292 142.9 296.9 163.9 323.8Z" fill="#7E47DD"/>
<path d="M273 105C300.6 105 323 127.4 323 155C323 182.6 300.6 205 273 205C245.4 205 223 182.6 223 155C223 127.4 245.4 105 273 105Z" fill="#7E47DD"/>
</g>
<defs>
<clipPath id="clip0_879_5695">
<rect width="1920" height="791" fill="white"/>
</clipPath>
</defs>
</svg>
