<svg xmlns="http://www.w3.org/2000/svg" viewBox="0 0 891.16 260.54"><defs><style>.cls-1,.cls-2{fill:#fff;}.cls-2{font-size:172.03px;font-family:Philosopher-Regular, Philosopher;}.cls-3{letter-spacing:-0.01em;}</style></defs><g id="Layer_2" data-name="Layer 2"><g id="Layer_1-2" data-name="Layer 1"><rect class="cls-1" x="104.02" y="23.04" width="25.45" height="25.45"/><rect class="cls-1" x="158.04" y="23.04" width="25.45" height="25.45"/><rect class="cls-1" x="158.04" y="185.09" width="25.45" height="25.45"/><rect class="cls-1" x="158.04" y="158.08" width="25.45" height="25.45"/><rect class="cls-1" x="158.04" y="104.06" width="25.45" height="25.45"/><rect class="cls-1" x="158.04" y="50.05" width="25.45" height="25.45"/><rect class="cls-1" x="158.04" y="77.05" width="25.45" height="25.45"/><rect class="cls-1" x="158.04" y="212.1" width="25.45" height="25.45"/><rect class="cls-1" x="131.03" y="185.09" width="25.45" height="25.45"/><rect class="cls-1" x="131.03" y="212.1" width="25.45" height="25.45"/><rect class="cls-1" x="131.03" y="158.08" width="25.45" height="25.45"/><rect class="cls-1" x="131.03" y="23.04" width="25.45" height="25.45"/><rect class="cls-1" x="131.03" y="131.07" width="25.45" height="25.45"/><rect class="cls-1" x="131.03" y="77.05" width="25.45" height="25.45"/><rect class="cls-1" x="131.03" y="104.06" width="25.45" height="25.45"/><rect class="cls-1" x="158.04" y="131.07" width="25.45" height="25.45"/><rect class="cls-1" x="212.06" y="131.07" width="25.45" height="25.45"/><rect class="cls-1" x="212.06" y="158.08" width="25.45" height="25.45"/><rect class="cls-1" x="212.06" y="185.09" width="25.45" height="25.45"/><rect class="cls-1" x="212.06" y="104.06" width="25.45" height="25.45"/><rect class="cls-1" x="185.05" y="212.1" width="25.45" height="25.45"/><rect class="cls-1" x="212.06" y="50.05" width="25.45" height="25.45"/><rect class="cls-1" x="212.06" y="77.05" width="25.45" height="25.45"/><rect class="cls-1" x="185.05" y="158.08" width="25.45" height="25.45"/><rect class="cls-1" x="185.05" y="185.09" width="25.45" height="25.45"/><rect class="cls-1" x="185.05" y="131.07" width="25.45" height="25.45"/><rect class="cls-1" x="185.05" y="50.05" width="25.45" height="25.45"/><rect class="cls-1" x="185.05" y="23.04" width="25.45" height="25.45"/><rect class="cls-1" x="185.05" y="77.05" width="25.45" height="25.45"/><rect class="cls-1" x="185.05" y="104.06" width="25.45" height="25.45"/><rect class="cls-1" x="131.03" y="50.05" width="25.45" height="25.45"/><rect class="cls-1" x="50" y="185.09" width="25.45" height="25.45"/><rect class="cls-1" x="50" y="212.1" width="25.45" height="25.45"/><rect class="cls-1" x="50" y="158.08" width="25.45" height="25.45"/><rect class="cls-1" x="50" y="77.05" width="25.45" height="25.45"/><rect class="cls-1" x="50" y="131.07" width="25.45" height="25.45"/><rect class="cls-1" x="50" y="104.06" width="25.45" height="25.45"/><rect class="cls-1" x="22.99" y="158.08" width="25.45" height="25.45"/><rect class="cls-1" x="104.02" y="50.05" width="25.45" height="25.45"/><rect class="cls-1" x="22.99" y="185.09" width="25.45" height="25.45"/><rect class="cls-1" x="22.99" y="104.06" width="25.45" height="25.45"/><rect class="cls-1" x="22.99" y="77.05" width="25.45" height="25.45"/><rect class="cls-1" x="22.99" y="50.05" width="25.45" height="25.45"/><rect class="cls-1" x="22.99" y="131.07" width="25.45" height="25.45"/><rect class="cls-1" x="50" y="50.05" width="25.45" height="25.45"/><rect class="cls-1" x="104.02" y="185.09" width="25.45" height="25.45"/><rect class="cls-1" x="77.01" y="23.04" width="25.45" height="25.45"/><rect class="cls-1" x="104.02" y="212.1" width="25.45" height="25.45"/><rect class="cls-1" x="104.02" y="158.08" width="25.45" height="25.45"/><rect class="cls-1" x="104.02" y="131.07" width="25.45" height="25.45"/><rect class="cls-1" x="104.02" y="77.05" width="25.45" height="25.45"/><rect class="cls-1" x="104.02" y="104.06" width="25.45" height="25.45"/><rect class="cls-1" x="77.01" y="158.08" width="25.45" height="25.45"/><rect class="cls-1" x="77.01" y="185.09" width="25.45" height="25.45"/><rect class="cls-1" x="50" y="23.04" width="25.45" height="25.45"/><rect class="cls-1" x="77.01" y="212.1" width="25.45" height="25.45"/><rect class="cls-1" x="77.01" y="104.06" width="25.45" height="25.45"/><rect class="cls-1" x="77.01" y="77.05" width="25.45" height="25.45"/><rect class="cls-1" x="77.01" y="50.05" width="25.45" height="25.45"/><rect class="cls-1" x="77.01" y="131.07" width="25.45" height="25.45"/><rect class="cls-1" y="215.1" width="45.44" height="45.44"/><rect class="cls-1" x="215.06" y="215.1" width="45.44" height="45.44"/><rect class="cls-1" width="45.44" height="45.44"/><rect class="cls-1" x="215.06" width="45.44" height="45.44"/><text class="cls-2" transform="translate(310.9 185.71)">Sekar<tspan class="cls-3" x="410.12" y="0">y</tspan><tspan x="497.51" y="0">a</tspan></text></g></g></svg>