<svg width="201" height="100" viewBox="0 0 201 100" fill="none" xmlns="http://www.w3.org/2000/svg">
<g clip-path="url(#clip0_1899_12)">
<path d="M122.796 47.6003H126.586C127.574 52.5599 130.549 54.1491 133.666 53.4488C137.061 52.6879 138.456 49.368 137.876 43.735C137.293 43.4858 136.925 44.0279 136.487 44.2367C132.41 46.1727 127.969 45.1626 125.089 41.6037C122.265 38.1121 121.867 33.102 124.098 29.0885C126.277 25.1693 130.712 23.203 134.79 24.3444C138.972 25.5161 141.975 29.432 142.101 34.2266C142.225 38.8225 142.243 43.432 142.101 48.0279C141.929 53.4926 138.03 57.7081 133.04 58.1256C128.293 58.5229 123.904 54.9134 122.867 49.7518C122.734 49.0919 122.645 48.432 122.796 47.5936V47.6003ZM132.432 28.5868C129.348 28.5734 126.805 31.304 126.805 34.6272C126.805 37.9202 129.391 40.698 132.441 40.6744C135.438 40.6508 137.938 37.9538 137.975 34.7013C138.015 31.3646 135.509 28.5969 132.432 28.5868Z" fill="#090909"/>
<path d="M55.8996 43.621C54.5786 45.1193 53.0076 44.116 51.4922 44.4695V12.7018C52.8008 12.5099 54.0663 12.5772 55.5323 12.6783V25.5974C62.6156 23.254 66.628 24.2574 69.3379 28.9341C71.6743 32.9678 71.2731 38.1934 68.3533 41.7119C65.1835 45.5335 60.7237 46.2338 55.8996 43.6176V43.621ZM66.6712 34.8601C66.7947 31.5638 64.4675 28.7725 61.4521 28.5941C58.2916 28.4089 55.6589 31.0352 55.5508 34.4729C55.4521 37.7018 57.8564 40.5065 60.8656 40.6715C63.9243 40.8399 66.5416 38.217 66.6681 34.8567L66.6712 34.8601Z" fill="#090909"/>
<path d="M36.6819 44.3412H30.7066C30.1325 38.9439 27.3918 35.9035 22.2745 35.2402V28.6173C20.4257 28.6173 18.793 28.6072 17.1634 28.6207C16.5585 28.6274 16.151 28.5769 15.9782 27.7183C14.8887 22.3581 12.7004 20.1594 7.73438 19.3884V12.7554C11.7313 12.7823 15.1263 14.2941 17.9597 17.3177C20.8084 20.3547 22.1634 24.1392 22.3702 28.3614C31.9134 30.5702 37.6078 36.9237 36.685 44.3446L36.6819 44.3412Z" fill="#EA382A"/>
<path d="M80.6011 69.0245C81.1566 69.91 80.8079 70.7551 81.1752 71.8696C82.2832 69.9471 83.6782 68.7888 85.6536 68.7316C87.7153 68.671 89.1196 69.8696 90.4962 72.0413V67.112C91.1844 66.5531 91.7153 66.6508 92.2492 66.8393C92.6783 67.4454 92.2801 68.1962 92.6505 68.8865C93.7678 69.3073 95.027 68.846 96.206 69.1558C96.7245 70.9437 96.6227 71.1019 95.0023 71.1188C92.3758 71.1457 92.4313 70.4588 92.4992 73.91C92.5363 75.9134 93.456 76.8393 95.3048 76.9134C97.4468 76.9976 98.4313 76.1221 98.6381 73.9403C98.9313 70.8561 100.78 68.8225 103.357 68.7383C105.617 68.6642 107.502 70.0582 108.228 72.3343C108.941 74.5733 108.32 76.8898 106.613 78.3646C104.925 79.8258 102.542 79.8932 100.718 78.5295C100.342 78.2467 99.9869 77.9302 99.6381 77.644C95.0918 80.4925 92.9869 80.0683 90.7122 75.8797C88.1381 80.6003 84.1381 80.6777 81.1289 76.6339C80.7925 77.2029 80.99 77.8225 80.9499 78.405C80.8017 80.6676 79.8634 82.4252 77.9406 83.2905C75.9066 84.2029 73.9159 83.8528 72.1042 82.4353C71.2307 81.7518 71.6505 80.846 71.527 79.7787C73.4869 80.8124 75.1875 82.1592 77.311 81.1019C78.0301 80.745 78.4221 80.1895 78.5764 79.3545C78.0764 78.9538 77.635 79.2299 77.1412 79.3477C75.1721 79.8157 73.4499 79.2669 72.1752 77.5228C70.9128 75.7922 70.7091 73.8191 71.5579 71.8326C72.4097 69.8359 73.9375 68.7316 75.9715 68.7585C77.5517 68.7787 79.0702 69.7181 80.6011 69.0245ZM76.0332 77.1019C77.9252 77.0683 79.1134 75.9302 79.1042 74.1524C79.098 72.2602 77.8974 71.1221 75.9344 71.1457C74.0517 71.1693 72.9313 72.304 72.956 74.1592C72.9807 75.9605 74.206 77.1322 76.0332 77.1019ZM85.7986 77.1019C87.6782 77.0784 88.8511 75.9336 88.8511 74.1255C88.8511 72.3174 87.6536 71.139 85.8141 71.1322C83.8974 71.1255 82.6042 72.3713 82.6474 74.1794C82.6875 75.8966 84.0085 77.1221 85.7986 77.0986V77.1019ZM103.7 71.1491C101.876 71.0514 100.576 72.1827 100.499 73.9336C100.422 75.7046 101.601 76.9942 103.394 77.1053C105.252 77.2198 106.629 75.9976 106.669 74.2029C106.709 72.3949 105.598 71.2535 103.7 71.1524V71.1491Z" fill="#6BCB5F"/>
<path d="M160.987 45.1025C156.406 45.6008 154.477 45.3011 151.44 43.6378C150.163 45.1395 148.551 44.1059 146.98 44.4897V12.7186C148.311 12.5099 149.616 12.557 151.042 12.6951V25.9375C154.227 23.5402 157.579 24.1025 160.953 24.0958C161.135 25.6109 161.116 27.0318 160.959 28.584C159.511 28.584 158.129 28.5604 156.749 28.5873C153.49 28.6547 151.11 31.1732 151.085 34.557C151.058 38.0149 153.453 40.5941 156.789 40.6715C158.163 40.7018 159.539 40.6782 160.987 40.6782V45.1025Z" fill="#090909"/>
<path d="M94.6176 44.4557C93.0405 44.1661 91.5065 45.0045 90.022 43.6745C87.6207 45.1493 84.88 45.7452 81.954 44.7149C77.3275 43.0853 74.417 37.9641 75.2689 32.9237C76.1824 27.4961 80.3368 23.8496 85.346 24.0786C90.2164 24.2974 94.2905 28.4287 94.5837 33.7385C94.775 37.193 94.6207 40.6712 94.6207 44.459L94.6176 44.4557ZM90.4324 34.5668C90.4077 31.1863 87.9108 28.5365 84.7966 28.587C81.7719 28.6375 79.3306 31.3109 79.3121 34.5937C79.2936 37.9136 81.8368 40.6813 84.8985 40.6745C87.9849 40.6678 90.4571 37.9371 90.4324 34.5668Z" fill="#090909"/>
<path d="M119.071 44.3713H114.932C114.932 41.0919 114.966 37.8595 114.923 34.6306C114.886 31.9403 113.34 29.6811 111.111 28.8966C108.793 28.0818 106.364 28.8932 104.907 30.9774C104.099 32.1356 103.769 33.4622 103.775 34.9067C103.781 37.4858 103.784 40.0616 103.769 42.6407C103.765 43.1861 103.898 43.7619 103.546 44.3477H99.6914V26.3612C99.7562 26.3141 99.8426 26.1996 99.9198 26.2063C102.056 26.341 103.96 25.6811 105.951 24.7787C111.488 22.2602 117.972 26.2501 118.867 32.6642C119.398 36.4791 118.975 40.3579 119.071 44.3713Z" fill="#090909"/>
<path d="M186.525 40.8199V44.9916C183.457 45.5203 179.682 43.133 177.978 39.6145C177.374 38.3654 176.88 37.0388 176.867 35.628C176.824 29.7492 176.849 23.8704 176.849 17.9209C178.194 17.7021 179.509 17.7795 180.982 17.8704V24.2711H186.503V28.6415H181.096C181.096 31.1701 180.883 33.5371 181.154 35.8368C181.438 38.2442 182.972 39.7761 185.133 40.4664C185.571 40.6078 186.025 40.6987 186.522 40.8233L186.525 40.8199Z" fill="#090909"/>
<path d="M22.334 19.3211V12.8935C29.7445 12.3447 37.0253 19.8666 36.7599 28.4625H30.8402C28.5655 21.5231 27.6087 20.4794 22.334 19.3211Z" fill="#EA382A"/>
<path d="M22.1229 44.4182C20.3667 44.4182 18.5828 44.4115 16.7988 44.4216C16.2957 44.4216 16.0673 44.1724 15.9994 43.6337C15.3574 38.3946 12.3605 35.8694 7.70312 35.2128V28.8593C14.2216 27.0781 23.0642 36.5057 22.1229 44.4182Z" fill="#EA382A"/>
<path d="M170.582 37.5802H166.641V17.8799H170.582V37.5802Z" fill="#090909"/>
<path d="M18.0541 74.6375C17.0232 74.6375 16.1065 74.6274 15.1899 74.6409C14.5294 74.651 14.1158 74.449 14.1189 73.6005C14.1189 72.7823 14.48 72.5163 15.1652 72.5264C16.3997 72.5432 17.6374 72.5971 18.8658 72.5096C20.0479 72.4254 20.2392 73.0887 20.1899 74.1527C20.0695 76.8429 18.6189 79.0079 16.3102 79.8597C13.8041 80.7857 10.9769 79.8968 9.18368 77.6106C6.99232 74.8227 7.23924 70.8294 9.76084 68.2166C12.2207 65.6678 15.9399 65.6375 18.375 68.1729C17.8936 69.587 17.1528 69.3648 16.125 68.7722C14.196 67.6577 11.7578 68.4119 10.517 70.3513C9.26701 72.3042 9.46146 75.0012 10.9738 76.6948C12.517 78.422 14.9615 78.7183 16.7485 77.3648C17.5232 76.7789 18.1621 76.0651 18.051 74.6308L18.0541 74.6375Z" fill="#6091EE"/>
<path d="M44.5777 79.5363C42.6981 80.4151 41.0407 80.4488 39.6456 78.8326C38.4419 77.442 38.1518 75.8158 38.7783 74.0212C39.4975 71.9572 41.4111 70.8697 43.3648 71.4016C43.6611 71.4824 43.9481 71.7181 44.2351 71.708C44.8617 71.6878 45.5901 71.0313 46.0777 71.7215C46.5561 72.4016 46.2567 73.3478 46.2691 74.1727C46.2999 76.0178 46.2938 77.8663 46.2691 79.7114C46.2382 82.1289 45.3802 83.469 43.5592 84.0245C41.7259 84.5835 40.0376 83.7484 38.8987 81.6609C39.5191 81.0818 40.0469 80.4084 40.8617 81.5026C41.5222 82.3882 42.4882 82.4622 43.4049 82.0952C44.3524 81.7148 44.5499 80.7754 44.5715 79.5329L44.5777 79.5363ZM44.6857 75.6777C44.6703 74.1087 43.732 73.0043 42.4635 73.0515C41.2629 73.0986 40.2814 74.3747 40.3308 75.8225C40.3771 77.1962 41.3864 78.3781 42.5191 78.3882C43.7444 78.3983 44.7012 77.1996 44.6857 75.6744V75.6777Z" fill="#6091EE"/>
<path d="M182.339 71.001C182.527 71.6643 182.317 72.442 183.231 73.1693C180.169 73.0043 177.802 72.2064 176.018 69.8697C176.326 69.5868 176.69 69.4656 177.104 69.4959C178.808 69.6205 178.882 69.5229 178.477 67.6744C177.981 65.405 178.579 64.3814 180.869 63.6777C181.366 64.5734 180.783 65.6474 181.246 66.6508C182.86 66.2232 184.348 65.2064 186.314 65.2569C185.018 67.0414 183.808 68.7047 182.598 70.368C181.9 69.3882 182.734 68.0582 182.033 67.0616C180.891 67.6272 181.079 69.6373 182.342 70.9976L182.339 71.001Z" fill="#53A5DE"/>
<path d="M52.3063 77.183C53.2322 78.7082 54.2013 78.7385 55.9945 77.2974C56.5223 77.3917 56.8587 77.7958 57.2322 78.1493C55.9884 80.0382 54.2137 80.6442 52.3742 79.8564C50.6458 79.119 49.6705 77.1762 49.9112 74.9439C50.1149 73.0483 51.4637 71.5432 53.2168 71.2739C54.1705 71.1257 55.0501 71.3311 55.834 71.9708C56.5563 72.5601 57.2445 73.3176 57.2415 74.2671C57.2384 75.2301 56.1643 75.1089 55.5624 75.4389C54.5563 75.991 53.5007 76.4254 52.4698 76.9203C52.3958 76.9574 52.3618 77.0954 52.3094 77.183H52.3063ZM55.2229 73.8261C54.51 72.8496 53.7445 72.8799 53.0316 73.1931C52.2507 73.5399 51.7816 74.22 51.8279 75.3412C53.0717 75.0281 54.0563 74.486 55.2229 73.8227V73.8261Z" fill="#DD6051"/>
<path d="M28.9959 75.6714C29.0052 78.2741 27.32 80.1293 24.9342 80.1394C22.5638 80.1529 20.8293 78.2842 20.8262 75.7118C20.8231 73.1361 22.5546 71.2236 24.8941 71.2202C27.2398 71.2135 28.9836 73.1091 28.9928 75.668L28.9959 75.6714ZM24.8756 73.0418C23.6163 73.062 22.6626 74.2303 22.6719 75.7354C22.6842 77.2 23.7151 78.4054 24.9373 78.3819C26.1749 78.3616 27.1564 77.1462 27.1379 75.6579C27.1194 74.1058 26.1811 73.0182 24.8725 73.0418H24.8756Z" fill="#DD6051"/>
<path d="M37.8675 75.6073C37.8922 78.2841 36.1947 80.1427 33.7348 80.1393C31.3552 80.1393 29.778 78.4592 29.741 75.8868C29.7009 73.2201 31.2811 71.0956 33.5589 71.2572C35.8027 71.4188 37.8397 72.4962 37.8675 75.604V75.6073ZM33.7996 73.0518C32.5342 73.0383 31.4879 74.1797 31.4632 75.604C31.4354 77.0417 32.5743 78.402 33.7996 78.3986C35.0126 78.3986 36.0002 77.1932 35.9972 75.7151C35.9972 74.2302 35.0342 73.0653 33.7996 73.0518Z" fill="#F2C252"/>
<path d="M163.99 79.2974C163.99 75.6139 163.99 72.3109 163.99 69.0078C163.99 68.4927 164.108 68.1391 164.669 68.1324C165.327 68.1257 165.401 68.5667 165.398 69.129C165.388 70.7351 165.395 72.3412 165.395 73.9641C167.493 74.2098 167.413 70.6812 169.58 71.4624C169.404 72.9641 167.407 73.5903 167.969 75.2233C168.407 76.496 169.305 77.5802 170.166 79.0247C167.391 79.4691 167.774 75.6071 165.774 75.5028C164.734 76.4758 166.41 78.7216 163.993 79.2974H163.99Z" fill="#585858"/>
<path d="M133.846 73.9809C133.5 72.4085 132.911 72.0886 131.352 72.6004C130.837 72.7688 130.21 73.3075 130.003 72.3277C129.843 71.56 130.568 71.5297 131.022 71.3748C133.843 70.4051 135.383 71.6509 135.395 74.8967C135.399 76.0179 135.389 77.1425 135.395 78.2637C135.399 78.89 135.081 79.3849 134.574 79.1122C133.76 78.6778 133.105 79.0819 132.374 79.2401C130.88 79.56 129.602 78.7688 129.346 77.4118C129.084 76.0213 129.763 74.9708 131.309 74.5095C132.096 74.2772 132.914 74.1694 133.843 73.9809H133.846ZM133.797 75.5566C132.044 75.2603 130.889 75.6677 130.809 76.6543C130.738 77.5499 131.244 78.0078 131.997 78.0886C133.022 78.1964 133.772 77.1055 133.797 75.5566Z" fill="#585858"/>
<path d="M162.604 75.2235C162.586 77.6309 160.888 79.3716 158.61 79.3144C156.425 79.2605 154.802 77.4928 154.805 75.1696C154.805 72.7925 156.555 71.008 158.808 71.0787C161.018 71.1494 162.623 72.8969 162.607 75.2235H162.604ZM158.771 72.4154C157.373 72.3817 156.206 73.6241 156.19 75.1561C156.178 76.6174 157.416 77.9979 158.731 77.9878C159.99 77.9777 161.163 76.7016 161.212 75.2807C161.268 73.742 160.163 72.4457 158.768 72.4154H158.771Z" fill="#585858"/>
<path d="M145.269 75.4291C145.454 77.5907 146.849 78.4291 148.713 77.6782C149.213 77.4762 149.791 76.8634 150.081 77.8096C150.343 78.6681 149.537 78.7523 149.065 78.9543C147.568 79.5907 146.121 79.4527 144.871 78.3045C143.59 77.1294 143.362 75.5537 143.766 73.8668C144.146 72.2944 145.189 71.4358 146.605 71.1564C147.988 70.8836 149.149 71.3483 149.92 72.685C150.34 73.4089 150.667 74.2708 150.303 75.0587C149.973 75.7692 149.186 75.382 148.605 75.4123C147.534 75.4628 146.46 75.4257 145.269 75.4257V75.4291ZM148.892 74.0183C148.757 72.8769 148.189 72.3685 147.238 72.3516C146.204 72.3348 145.504 72.8028 145.189 74.1698C146.5 74.19 147.683 74.4224 148.892 74.0183Z" fill="#585858"/>
<path d="M175.357 73.964C174.916 72.0582 173.811 72.2805 172.675 72.6273C172.206 72.7687 171.654 73.2502 171.416 72.4017C171.185 71.5734 171.916 71.5599 172.351 71.3983C175.123 70.3781 176.771 71.6542 176.79 74.8158C176.796 75.6003 176.817 76.3848 176.783 77.166C176.737 78.2266 177.188 79.8899 175.203 78.7451C174.962 78.6071 174.469 79.038 174.08 79.1592C172.53 79.6508 171.083 78.8899 170.743 77.4252C170.425 76.0481 171.178 74.9303 172.808 74.4724C173.595 74.2535 174.407 74.1491 175.357 73.9606V73.964ZM175.222 75.5936C173.527 75.2097 172.209 75.671 172.154 76.7013C172.104 77.5969 172.645 78.0145 173.382 78.0852C174.401 78.1794 175.163 77.1121 175.222 75.5936Z" fill="#585858"/>
<path d="M136.258 71.5497C138.088 70.8595 138.014 72.4049 138.375 73.3039C138.782 74.314 139.079 75.378 139.468 76.5531C141.252 75.2298 140.332 71.9066 142.634 71.2837C142.786 71.3881 142.934 71.4924 143.085 71.6002C142.313 73.8931 141.542 76.1827 140.773 78.479C140.579 79.0581 140.165 79.1456 139.668 79.1524C139.131 79.1591 138.813 78.9167 138.628 78.3712C137.86 76.1288 137.076 73.8931 136.261 71.5531L136.258 71.5497Z" fill="#585858"/>
<path d="M120.401 69.2333C122.247 68.6676 121.454 70.4084 121.704 70.9202C122.151 71.7518 123.371 70.8596 123.306 72.0515C123.256 72.9673 122.346 72.3713 121.834 72.8191C121.528 73.9067 121.729 75.1356 121.725 76.3478C121.725 77.1222 122.154 77.6239 122.837 77.7383C123.448 77.8427 123.658 78.1761 123.497 78.7653C123.334 79.3579 122.834 79.2266 122.454 79.1592C121.133 78.9235 120.318 78.0986 120.222 76.5969C120.167 75.7047 120.188 74.8057 120.179 73.9067C120.176 73.3478 120.219 72.8158 119.608 72.4959C119.216 72.2905 119.229 71.6575 119.559 71.533C120.664 71.1255 120.037 70.0885 120.401 69.2333Z" fill="#585858"/>
<path d="M48.9378 79.6813C47.7033 80.1359 47.3699 79.6342 47.3854 78.4356C47.4286 75.018 47.4348 71.6005 47.3854 68.183C47.3669 66.9507 47.765 66.5467 48.9409 66.9002V79.6847L48.9378 79.6813Z" fill="#62AB66"/>
<path d="M170.616 40.1392V44.3176H166.69C166.39 42.9809 166.569 41.6139 166.585 40.1392H170.612H170.616Z" fill="#090909"/>
<path d="M151.696 73.1059C151.696 72.0958 151.631 71.079 151.718 70.079C151.777 69.409 151.23 68.2507 152.344 68.2002C153.548 68.143 152.993 69.3484 153.023 69.9915C153.101 71.6716 153.014 73.3585 153.064 75.0386C153.094 76.0857 152.659 77.3349 153.993 77.9477C154.261 78.0723 154.215 78.5672 154.073 78.877C153.946 79.1531 153.662 79.1834 153.4 79.1598C152.261 79.0655 151.767 78.2878 151.724 77.1497C151.675 75.8063 151.712 74.4561 151.712 73.1093C151.706 73.1093 151.702 73.1093 151.696 73.1093V73.1059Z" fill="#585858"/>
<path d="M128.613 72.2466C126.546 73.0884 126.243 73.7584 126.117 76.6103C126.079 77.4386 126.829 79.0278 125.447 79.0109C124.268 78.9975 124.938 77.4756 124.882 76.6507C124.768 74.9369 124.848 73.2096 124.848 71.4318C126.07 71.9066 127.113 72.0278 128.172 71.3577C128.314 71.2668 128.613 71.7517 128.613 72.2433V72.2466Z" fill="#585858"/>
<path d="M182.339 71.0015C181.077 69.6412 180.888 67.6311 182.03 67.0654C182.731 68.0621 181.898 69.3887 182.595 70.3718C182.509 70.5806 182.425 70.7927 182.339 71.0015Z" fill="#3C87AE"/>
</g>
<defs>
<clipPath id="clip0_1899_12">
<rect width="200" height="100" fill="white" transform="translate(0.203125 0.00439453)"/>
</clipPath>
</defs>
</svg>
