<svg width="22" height="80" viewBox="0 0 22 80" fill="none" xmlns="http://www.w3.org/2000/svg">
<path d="M19.2 4.60001C18.3 4.60001 17.7 3.90001 17.6 3.10001C17.5 2.30001 18.3 1.60001 19.1 1.50001C19.9 1.40001 20.6 2.20001 20.7 3.00001C20.7 3.90001 20 4.60001 19.2 4.60001ZM19.2 12.8C18.3 12.8 17.7 12.1 17.6 11.3C17.5 10.5 18.3 9.80001 19.1 9.70001C19.9 9.60001 20.6 10.4 20.7 11.2C20.7 12.1 20 12.8 19.2 12.8ZM19.2 21.1C18.3 21.1 17.7 20.4 17.6 19.6C17.5 18.8 18.3 18.1 19.1 18C19.9 17.9 20.6 18.7 20.7 19.5C20.7 20.4 20 21 19.2 21.1ZM19.2 29.3C18.3 29.3 17.7 28.6 17.6 27.8C17.5 27 18.3 26.3 19.1 26.2C19.9 26.1 20.6 26.9 20.7 27.7C20.7 28.6 20 29.3 19.2 29.3ZM19.2 37.5C18.3 37.5 17.7 36.8 17.6 36C17.5 35.2 18.3 34.5 19.1 34.4C19.9 34.3 20.6 35.1 20.7 35.9C20.7 36.8 20 37.5 19.2 37.5ZM11.2 4.60001C10.3 4.60001 9.69995 3.90001 9.69995 3.10001C9.69995 2.30001 10.4 1.60001 11.2 1.60001C12.1 1.60001 12.7 2.30001 12.7 3.10001C12.7 3.90001 12.1 4.60001 11.2 4.60001ZM11.2 12.8C10.3 12.8 9.69995 12.1 9.69995 11.3C9.69995 10.5 10.4 9.80001 11.2 9.80001C12.1 9.80001 12.7 10.5 12.7 11.3C12.7 12.1 12.1 12.8 11.2 12.8ZM11.2 21C10.3 21 9.69995 20.3 9.69995 19.5C9.69995 18.7 10.3 18 11.2 18C12.1 18 12.7 18.7 12.7 19.5C12.7 20.4 12.1 21 11.2 21C11.2 21.1 11.2 21.1 11.2 21ZM11.2 29.3C10.3 29.3 9.69995 28.6 9.69995 27.8C9.69995 27 10.4 26.3 11.2 26.3C12.1 26.3 12.7 27 12.7 27.8C12.7 28.6 12.1 29.3 11.2 29.3ZM11.2 37.5C10.3 37.5 9.69995 36.8 9.69995 36C9.69995 35.2 10.4 34.5 11.2 34.5C12.1 34.5 12.7 35.2 12.7 36C12.7 36.8 12.1 37.5 11.2 37.5ZM3.19995 4.60001C2.29995 4.60001 1.69995 3.90001 1.69995 3.10001C1.69995 2.30001 2.39995 1.60001 3.19995 1.60001C4.09995 1.60001 4.69995 2.30001 4.69995 3.10001C4.79995 3.90001 4.09995 4.60001 3.19995 4.60001ZM3.19995 12.8C2.29995 12.8 1.69995 12.1 1.69995 11.3C1.69995 10.5 2.39995 9.80001 3.19995 9.80001C4.09995 9.80001 4.69995 10.5 4.69995 11.3C4.79995 12.1 4.09995 12.8 3.19995 12.8ZM3.19995 21C2.29995 21 1.69995 20.3 1.69995 19.5C1.69995 18.7 2.39995 18 3.19995 18C4.09995 18 4.69995 18.7 4.69995 19.5C4.79995 20.4 4.09995 21 3.19995 21C3.19995 21.1 3.19995 21.1 3.19995 21ZM3.19995 29.3C2.29995 29.3 1.69995 28.6 1.69995 27.8C1.69995 27 2.39995 26.3 3.19995 26.3C4.09995 26.3 4.69995 27 4.69995 27.8C4.79995 28.6 4.09995 29.3 3.19995 29.3ZM3.19995 37.5C2.29995 37.5 1.69995 36.8 1.69995 36C1.69995 35.2 2.39995 34.5 3.19995 34.5C4.09995 34.5 4.69995 35.2 4.69995 36C4.79995 36.8 4.09995 37.5 3.19995 37.5ZM19.2 45.6C18.3 45.6 17.7 44.9 17.6 44.1C17.5 43.3 18.3 42.6 19.1 42.5C19.9 42.4 20.6 43.2 20.7 44C20.7 44.9 20 45.6 19.2 45.6ZM19.2 53.8C18.3 53.8 17.7 53.1 17.6 52.3C17.5 51.5 18.3 50.8 19.1 50.7C19.9 50.6 20.6 51.4 20.7 52.2C20.7 53.2 20 53.8 19.2 53.8C19.2 53.9 19.2 53.9 19.2 53.8ZM19.2 62.1C18.3 62.1 17.7 61.4 17.6 60.6C17.5 59.8 18.3 59.1 19.1 59C19.9 58.9 20.6 59.7 20.7 60.5C20.7 61.4 20 62.1 19.2 62.1ZM19.2 70.3C18.3 70.3 17.7 69.6 17.6 68.8C17.5 68 18.3 67.3 19.1 67.2C19.9 67.1 20.6 67.9 20.7 68.7C20.7 69.6 20 70.3 19.2 70.3ZM19.2 78.5C18.3 78.5 17.7 77.8 17.6 77C17.5 76.2 18.3 75.5 19.1 75.4C19.9 75.3 20.6 76.1 20.7 76.9C20.7 77.8 20 78.5 19.2 78.5ZM11.2 45.6C10.3 45.6 9.69995 44.9 9.69995 44.1C9.69995 43.3 10.4 42.6 11.2 42.6C12.1 42.6 12.7 43.3 12.7 44.1C12.7 44.9 12.1 45.6 11.2 45.6ZM11.2 53.8C10.3 53.8 9.69995 53.1 9.69995 52.3C9.69995 51.5 10.4 50.8 11.2 50.8C12.1 50.8 12.7 51.5 12.7 52.3C12.7 53.2 12.1 53.8 11.2 53.8C11.2 53.9 11.2 53.9 11.2 53.8ZM11.2 62.1C10.3 62.1 9.69995 61.4 9.69995 60.6C9.69995 59.8 10.3 59 11.2 59C12.1 59 12.7 59.7 12.7 60.5C12.7 61.4 12.1 62.1 11.2 62.1ZM11.2 70.3C10.3 70.3 9.69995 69.6 9.69995 68.8C9.69995 68 10.4 67.3 11.2 67.3C12.1 67.3 12.7 68 12.7 68.8C12.7 69.6 12.1 70.3 11.2 70.3ZM11.2 78.5C10.3 78.5 9.69995 77.8 9.69995 77C9.69995 76.2 10.4 75.5 11.2 75.5C12.1 75.5 12.7 76.2 12.7 77C12.7 77.8 12.1 78.5 11.2 78.5ZM3.19995 45.6C2.29995 45.6 1.69995 44.9 1.69995 44.1C1.69995 43.3 2.39995 42.6 3.19995 42.6C4.09995 42.6 4.69995 43.3 4.69995 44.1C4.79995 44.9 4.09995 45.6 3.19995 45.6ZM3.19995 53.8C2.29995 53.8 1.69995 53.1 1.69995 52.3C1.69995 51.5 2.39995 50.8 3.19995 50.8C4.09995 50.8 4.69995 51.5 4.69995 52.3C4.79995 53.2 4.09995 53.8 3.19995 53.8C3.19995 53.9 3.19995 53.9 3.19995 53.8ZM3.19995 62.1C2.29995 62.1 1.69995 61.4 1.69995 60.6C1.69995 59.8 2.39995 59 3.19995 59C4.09995 59 4.69995 59.7 4.69995 60.5C4.79995 61.4 4.09995 62.1 3.19995 62.1ZM3.19995 70.3C2.29995 70.3 1.69995 69.6 1.69995 68.8C1.69995 68 2.39995 67.3 3.19995 67.3C4.09995 67.3 4.69995 68 4.69995 68.8C4.79995 69.6 4.09995 70.3 3.19995 70.3ZM3.19995 78.5C2.29995 78.5 1.69995 77.8 1.69995 77C1.69995 76.2 2.39995 75.5 3.19995 75.5C4.09995 75.5 4.69995 76.2 4.69995 77C4.79995 77.8 4.09995 78.5 3.19995 78.5Z" fill="#7E47DD"/>
</svg>
